REM DIRINDEX 1\2,1\3,1\5,1\4\6,1\4\7
REM DIRNAME cjc065,folder01,folder02,folder03,folder04,folder05,folder06
TITLE ""
FILE "Disk2Track31.mp3" MP3
  TRACK 01 AUDIO
    TITLE "2:cjc065_0778"
    INDEX 01 00:00:00
  TRACK 02 AUDIO
    TITLE "2:cjc065_0779"
    INDEX 01 00:15:07
  TRACK 03 AUDIO
    TITLE "2:cjc065_0780"
    INDEX 01 00:32:48
  TRACK 04 AUDIO
    TITLE "0:"
    INDEX 01 00:45:41
